<svg width="85" height="30" viewBox="0 0 85 30" fill="none" xmlns="http://www.w3.org/2000/svg">
<rect x="0.5" y="0.5" width="84" height="29" rx="2.5" fill="white" stroke="#CBCBCB"/>
<path d="M39 18.824H45.216V15.944H37.74V16.928H43.98V17.9H37.764V20.816H45.492V19.844H39V18.824ZM44.976 14.024C45.204 12.872 45.204 11.96 45.204 11.252V10.532H37.848V11.528H43.992C43.992 12.2 43.956 12.992 43.74 14.024H36.612V15.02H46.428V14.024H44.976ZM56.5791 15.512C55.1511 14.888 54.4671 13.544 54.4671 12.236V10.916H53.2191V12.236C53.2191 13.304 52.7631 14.528 51.7071 15.284C50.6391 14.516 50.1711 13.256 50.1711 12.236V10.916H48.9351V12.236C48.9351 13.46 48.2391 14.876 46.8231 15.512L47.4711 16.436C48.4911 15.98 49.1631 15.128 49.5471 14.144C49.9191 15.164 50.6151 16.088 51.6951 16.58C52.7871 16.1 53.4831 15.188 53.8551 14.168C54.2271 15.164 54.8991 15.992 55.9311 16.436L56.5791 15.512ZM46.7871 18.512V19.532H56.6391V18.512H46.7871ZM57.6221 11.228V12.236H61.4861C61.2701 14.732 59.9261 16.64 57.0821 18.008L57.7421 18.992C61.4621 17.192 62.7581 14.456 62.7581 11.228H57.6221ZM64.7141 10.088V20.924H65.9501V10.088H64.7141Z" fill="#575756"/>
<path d="M18 9.41219C18 9.13978 17.7761 8.91895 17.5 8.91895C17.2239 8.91895 17 9.13978 17 9.41219V11.3852C17 11.9747 17.4494 12.4608 18.0287 12.5281L17.3515 14.1756C17.0796 14.8371 17.1091 15.6108 17.4304 16.2423L20.0903 21.4714C20.1897 21.667 20.3325 21.8228 20.5 21.9268V15.6924C20.2011 15.5218 20 15.203 20 14.8379C20 14.2931 20.4477 13.8514 21 13.8514C21.5523 13.8514 22 14.2931 22 14.8379C22 15.203 21.7989 15.5218 21.5 15.6924V21.9268C21.6675 21.8228 21.8103 21.667 21.9097 21.4714L24.5697 16.2423C24.8909 15.6108 24.9204 14.8371 24.6485 14.1756L23.9713 12.5281C24.5506 12.4608 25 11.9747 25 11.3852V9.41219C25 9.13978 24.7761 8.91895 24.5 8.91895C24.2239 8.91895 24 9.13978 24 9.41219V11.3852C24 11.476 23.9254 11.5496 23.8333 11.5496H18.1667C18.0746 11.5496 18 11.476 18 11.3852V9.41219Z" fill="#575756"/>
</svg>
