<svg width="11" height="14" viewBox="0 0 11 14" fill="none" xmlns="http://www.w3.org/2000/svg">
<path d="M8.93954 8.6523C9.74699 8.6523 10.4015 9.30524 10.4015 10.1108V10.4839C10.4015 11.0639 10.1937 11.6248 9.8157 12.0654C8.79541 13.2545 7.24352 13.8413 5.19864 13.8413C3.15345 13.8413 1.60226 13.2543 0.583987 12.0647C0.207075 11.6244 0 11.0644 0 10.4854V10.1108C0 9.30524 0.65457 8.6523 1.46203 8.6523H8.93954ZM8.93954 9.6251H1.46203C1.19315 9.6251 0.975174 9.84255 0.975174 10.1108V10.4854C0.975174 10.8328 1.09942 11.1688 1.32557 11.4329C2.14036 12.3848 3.41841 12.8685 5.19864 12.8685C6.97886 12.8685 8.25802 12.3848 9.0749 11.4328C9.30172 11.1684 9.42635 10.8319 9.42635 10.4839V10.1108C9.42635 9.84255 9.20837 9.6251 8.93954 9.6251ZM5.19864 0.872925C6.99387 0.872925 8.44922 2.32472 8.44922 4.11559C8.44922 5.90647 6.99387 7.35828 5.19864 7.35828C3.40338 7.35828 1.94805 5.90647 1.94805 4.11559C1.94805 2.32472 3.40338 0.872925 5.19864 0.872925ZM5.19864 1.84573C3.94197 1.84573 2.92322 2.86198 2.92322 4.11559C2.92322 5.36921 3.94197 6.38547 5.19864 6.38547C6.45532 6.38547 7.47405 5.36921 7.47405 4.11559C7.47405 2.86198 6.45532 1.84573 5.19864 1.84573Z" fill="#FF50E2"/>
</svg>
