<svg width="15" height="14" viewBox="0 0 15 14" fill="none" xmlns="http://www.w3.org/2000/svg">
<path d="M9.21122 5.68979C9.90925 5.68979 10.4751 6.25428 10.4751 6.95061V10.3721C10.4751 12.163 9.01969 13.6149 7.22439 13.6149C5.42903 13.6149 3.97362 12.163 3.97362 10.3721V6.95061C3.97362 6.25428 4.53948 5.68979 5.23751 5.68979H9.21122ZM9.21122 6.77049H5.23751C5.13779 6.77049 5.05695 6.85111 5.05695 6.95061V10.3721C5.05695 11.5662 6.02731 12.5342 7.22439 12.5342C8.4214 12.5342 9.39178 11.5662 9.39178 10.3721V6.95061C9.39178 6.85111 9.31096 6.77049 9.21122 6.77049ZM1.26389 5.68979L3.70592 5.68912C3.45793 5.98843 3.2964 6.36163 3.25948 6.77063L1.26389 6.77049C1.16417 6.77049 1.08333 6.85111 1.08333 6.95061V9.29125C1.08333 10.2865 1.89211 11.0933 2.88978 11.0933C3.03422 11.0933 3.1747 11.0763 3.30934 11.0444C3.37052 11.4075 3.48224 11.7537 3.6363 12.076C3.39861 12.1401 3.14816 12.174 2.88978 12.174C1.2938 12.174 0 10.8833 0 9.29125V6.95061C0 6.25428 0.565861 5.68979 1.26389 5.68979ZM10.7428 5.68912L13.1806 5.68979C13.8786 5.68979 14.4444 6.25428 14.4444 6.95061V9.29211C14.4444 10.8837 13.151 12.174 11.5556 12.174C11.2982 12.174 11.0486 12.1404 10.811 12.0774C10.9662 11.7544 11.078 11.4082 11.1403 11.0451C11.2733 11.0767 11.4125 11.0933 11.5556 11.0933C12.5527 11.0933 13.3611 10.2869 13.3611 9.29211V6.95061C13.3611 6.85111 13.2803 6.77049 13.1806 6.77049L11.1892 6.77063C11.1523 6.36163 10.9908 5.98843 10.7428 5.68912ZM7.22222 0.646545C8.41887 0.646545 9.38889 1.61424 9.38889 2.80794C9.38889 4.00164 8.41887 4.96933 7.22222 4.96933C6.02557 4.96933 5.05556 4.00164 5.05556 2.80794C5.05556 1.61424 6.02557 0.646545 7.22222 0.646545ZM11.9167 1.36701C12.9138 1.36701 13.7222 2.17342 13.7222 3.16817C13.7222 4.16292 12.9138 4.96933 11.9167 4.96933C10.9195 4.96933 10.1111 4.16292 10.1111 3.16817C10.1111 2.17342 10.9195 1.36701 11.9167 1.36701ZM2.52778 1.36701C3.52496 1.36701 4.33333 2.17342 4.33333 3.16817C4.33333 4.16292 3.52496 4.96933 2.52778 4.96933C1.5306 4.96933 0.722222 4.16292 0.722222 3.16817C0.722222 2.17342 1.5306 1.36701 2.52778 1.36701ZM7.22222 1.72724C6.62393 1.72724 6.13889 2.21108 6.13889 2.80794C6.13889 3.40479 6.62393 3.88863 7.22222 3.88863C7.82051 3.88863 8.30556 3.40479 8.30556 2.80794C8.30556 2.21108 7.82051 1.72724 7.22222 1.72724ZM11.9167 2.44771C11.5178 2.44771 11.1944 2.77027 11.1944 3.16817C11.1944 3.56607 11.5178 3.88863 11.9167 3.88863C12.3155 3.88863 12.6389 3.56607 12.6389 3.16817C12.6389 2.77027 12.3155 2.44771 11.9167 2.44771ZM2.52778 2.44771C2.12891 2.44771 1.80556 2.77027 1.80556 3.16817C1.80556 3.56607 2.12891 3.88863 2.52778 3.88863C2.92665 3.88863 3.25 3.56607 3.25 3.16817C3.25 2.77027 2.92665 2.44771 2.52778 2.44771Z" fill="#999999"/>
</svg>
