<svg width="15" height="15" viewBox="0 0 15 15" fill="none" xmlns="http://www.w3.org/2000/svg">
<path d="M7.49997 0C11.6421 0 15 3.35786 15 7.49999C15 11.6421 11.6421 14.9999 7.49997 14.9999C3.35786 14.9999 0 11.6421 0 7.49999C0 3.35786 3.35786 0 7.49997 0ZM7.49997 1.12482C3.97909 1.12482 1.12482 3.97908 1.12482 7.49999C1.12482 11.0209 3.97909 13.8751 7.49997 13.8751C11.0209 13.8751 13.8752 11.0209 13.8752 7.49999C13.8752 3.97908 11.0209 1.12482 7.49997 1.12482ZM4.84671 9.58714C5.48346 10.3953 6.45156 10.8757 7.49997 10.8757C8.54696 10.8757 9.51393 10.3966 10.1508 9.59029C10.3433 9.3465 10.6969 9.30496 10.9407 9.49753C11.1844 9.69002 11.226 10.0437 11.0335 10.2875C10.1855 11.3611 8.89491 12.0005 7.49997 12.0005C6.10324 12.0005 4.811 11.3593 3.96318 10.2833C3.77095 10.0393 3.8129 9.68567 4.05688 9.49348C4.30086 9.30121 4.65448 9.3432 4.84671 9.58714ZM5.25068 5.06335C5.76808 5.06335 6.18753 5.48277 6.18753 6.00017C6.18753 6.51757 5.76808 6.93698 5.25068 6.93698C4.73329 6.93698 4.31386 6.51757 4.31386 6.00017C4.31386 5.48277 4.73329 5.06335 5.25068 5.06335ZM9.75 5.06335C10.2673 5.06335 10.6868 5.48277 10.6868 6.00017C10.6868 6.51757 10.2673 6.93698 9.75 6.93698C9.23258 6.93698 8.81317 6.51757 8.81317 6.00017C8.81317 5.48277 9.23258 5.06335 9.75 5.06335Z" fill="#212121"/>
</svg>
