<svg width="17" height="21" viewBox="0 0 17 21" fill="none" xmlns="http://www.w3.org/2000/svg">
<path d="M9.0019 2.89949V9.13614C9.0019 9.54924 8.6661 9.88412 8.2519 9.88412C7.8377 9.88412 7.5019 9.54924 7.5019 9.13614V4.12287C7.5019 3.88404 7.2977 3.6483 7.0041 3.64659C6.74165 3.64498 6.5 3.89051 6.5 4.14934V11.6295C6.5 11.9363 6.31208 12.2121 6.02598 12.3251C5.74066 12.4376 5.41543 12.3656 5.20483 12.1432L5.20406 12.1424L5.20145 12.1397C5.19741 12.1355 5.18995 12.128 5.17923 12.1175C5.15775 12.0963 5.1234 12.0633 5.07738 12.0219C4.98494 11.9386 4.84787 11.8235 4.67593 11.7021C4.32423 11.4537 3.86676 11.2078 3.37323 11.1216C2.83595 11.0276 2.32627 11.085 1.98757 11.2595C1.77902 11.3669 1.61572 11.5237 1.54231 11.7864L3.20069 13.0299C3.22872 13.0509 3.25524 13.0738 3.28006 13.0986L5.4553 15.2659C6.38986 16.197 7.1674 17.2726 7.758 18.4511C8.0372 19.0084 8.6082 19.3603 9.2328 19.3603H11.9606C12.5324 19.3603 13.0294 19.0883 13.2864 18.6491C14.0222 17.3922 15 15.37 15 13.6278V5.89471C15 5.62701 14.7849 5.39597 14.4988 5.39597C14.2099 5.39597 13.9959 5.62607 13.9959 5.89471V9.38544C13.9959 9.79853 13.6601 10.1335 13.2459 10.1335C12.8317 10.1335 12.4959 9.79853 12.4959 9.38544V4.14934C12.4959 3.87182 12.2815 3.64661 12 3.64661C11.7131 3.64661 11.5 3.87159 11.5 4.14935V9.13614C11.5 9.54924 11.1642 9.88412 10.75 9.88412C10.3358 9.88412 10 9.54924 10 9.13614V2.89949C10 2.62754 9.7879 2.40128 9.5014 2.40106C9.211 2.40083 9.0019 2.62347 9.0019 2.89949ZM7.0134 2.15059C7.2247 2.15184 7.4256 2.1845 7.6128 2.24338L7.0134 2.15059ZM7.6128 2.24338C7.8753 1.48684 8.5824 0.904322 9.5026 0.90503C10.4183 0.905738 11.1246 1.48944 11.388 2.24285C11.5781 2.18315 11.7831 2.15058 12 2.15058C13.1085 2.15058 13.8964 3.00396 13.9871 3.96391C14.1487 3.9223 14.3199 3.89994 14.4988 3.89994C15.6682 3.89994 16.5 4.85652 16.5 5.89471V13.6278C16.5 15.8027 15.3286 18.1276 14.5818 19.4034C14.0254 20.354 13.0022 20.8563 11.9606 20.8563H9.2328C8.0399 20.8563 6.9495 20.1841 6.41624 19.1199C5.89792 18.0855 5.21544 17.1415 4.39518 16.3242L2.25721 14.1941L0.29931 12.7261C0.11086 12.5847 0 12.3633 0 12.1281C0 11.0693 0.53131 10.3258 1.2992 9.93031C2.01488 9.56161 2.88154 9.51682 3.63215 9.648C4.15095 9.73868 4.61507 9.93071 5 10.1416V4.14934C5 3.09177 5.8882 2.14385 7.0134 2.15059" fill="#212121"/>
</svg>
