<svg width="58" height="58" viewBox="0 0 58 58" fill="none" xmlns="http://www.w3.org/2000/svg">
<g clip-path="url(#clip0_55_1085)">
<path d="M30.2579 1.24061L30.9127 0.542754C31.7053 -0.301572 33.0924 -0.137876 33.6696 0.86153L34.1435 1.69724C34.6432 2.5588 35.7632 2.82588 36.5903 2.27448L37.3916 1.74893C38.3565 1.11138 39.6661 1.58524 39.9935 2.69665L40.2692 3.61851C40.5535 4.57484 41.5787 5.09177 42.5178 4.74715L43.4225 4.41976C44.508 4.02344 45.6711 4.79023 45.7401 5.94471L45.7917 6.90104C45.8434 7.89183 46.7308 8.63277 47.7216 8.52077L48.678 8.40877C49.8238 8.27092 50.7802 9.28756 50.582 10.4248L50.4097 11.3725C50.2374 12.3547 50.9266 13.2766 51.9088 13.3886L52.8651 13.5006C54.0196 13.6298 54.7089 14.836 54.2522 15.9043L53.8731 16.7831C53.4768 17.6963 53.9335 18.7561 54.8726 19.0921L55.7772 19.4195C56.8628 19.8158 57.2677 21.1512 56.5698 22.0731L55.9926 22.8398C55.3981 23.6325 55.5963 24.7697 56.432 25.3125L57.2332 25.8381C58.1982 26.4756 58.2843 27.8627 57.3969 28.6037L56.6646 29.2154C55.8978 29.8529 55.8375 31.0074 56.5181 31.7225L57.1815 32.4204C57.9742 33.2647 57.7329 34.6346 56.6991 35.1515L55.8375 35.5823C54.9501 36.0303 54.6141 37.1331 55.1138 37.9946L55.5963 38.8217C56.1735 39.8211 55.6221 41.1048 54.5021 41.3633L53.5716 41.5787C52.6067 41.8027 52.0294 42.8021 52.3137 43.7584L52.5894 44.6803C52.9254 45.7917 52.0897 46.9031 50.9352 46.9031H49.9789C48.9795 46.9031 48.1955 47.7388 48.2558 48.7296L48.3161 49.6859C48.385 50.8404 47.3167 51.7365 46.1967 51.4694L45.2662 51.2454C44.3013 51.0127 43.3363 51.6503 43.164 52.6239L43.0003 53.5716C42.8021 54.7088 41.5529 55.3378 40.519 54.8122L39.6661 54.3814C38.7787 53.9334 37.6931 54.3297 37.3054 55.243L36.9263 56.1218C36.4697 57.1901 35.1171 57.5089 34.2297 56.7593L33.4973 56.139C32.7392 55.5015 31.5933 55.6307 30.9988 56.4319L30.4302 57.1987C29.7409 58.1292 28.3452 58.1292 27.656 57.1987L27.0874 56.4319C26.4929 55.6307 25.347 55.5015 24.5888 56.139L23.8565 56.7593C22.9691 57.5089 21.6165 57.1815 21.1598 56.1218L20.7808 55.243C20.3844 54.3297 19.3075 53.9334 18.4201 54.3814L17.5672 54.8122C16.5333 55.3378 15.2926 54.7088 15.0859 53.5716L14.9222 52.6239C14.7499 51.6417 13.7849 51.0127 12.82 51.2454L11.8895 51.4694C10.7609 51.7365 9.69252 50.8404 9.77006 49.6859L9.83037 48.7296C9.89068 47.7388 9.09805 46.8945 8.10726 46.9031H7.15093C5.99644 46.9031 5.16073 45.7917 5.49674 44.6803L5.77244 43.7584C6.05675 42.8021 5.48813 41.8113 4.51457 41.5787L3.58409 41.3633C2.45545 41.0962 1.90405 39.8211 2.48991 38.8217L2.97238 37.9946C3.47208 37.1331 3.14469 36.0303 2.24867 35.5823L1.38712 35.1515C0.353248 34.6346 0.112012 33.2647 0.904644 32.4204L1.56804 31.7225C2.24867 30.9988 2.18836 29.8529 1.42158 29.2154L0.689255 28.6037C-0.198148 27.8627 -0.120608 26.467 0.852951 25.8381L1.6542 25.3125C2.48991 24.7697 2.68807 23.6325 2.09359 22.8398L1.51635 22.0731C0.818488 21.1426 1.22342 19.8072 2.30898 19.4195L3.21362 19.0921C4.15271 18.7561 4.60934 17.6963 4.21302 16.7831L3.83394 15.9043C3.3687 14.8446 4.06656 13.6384 5.22104 13.5006L6.17737 13.3886C7.16816 13.2766 7.85741 12.3547 7.67648 11.3725L7.50417 10.4248C7.29739 9.28756 8.25372 8.27092 9.40821 8.40877L10.3645 8.52077C11.3553 8.64139 12.2341 7.90045 12.2944 6.90104L12.3461 5.94471C12.415 4.79023 13.5781 4.02344 14.6637 4.41976L15.5683 4.74715C16.4988 5.09177 17.5327 4.57484 17.817 3.61851L18.0927 2.69665C18.4201 1.58524 19.7297 1.11138 20.6946 1.74893L21.4958 2.27448C22.3229 2.82588 23.443 2.5588 23.9427 1.69724L24.4165 0.86153C24.9938 -0.146492 26.3809 -0.301572 27.1735 0.542754L27.8283 1.24061C28.5089 1.96432 29.6634 1.96432 30.344 1.24061H30.2579Z" fill="url(#paint0_linear_55_1085)"/>
<path d="M19.2557 30.2578C17.8945 30.2578 15.5597 27.9575 15.5597 26.8202C15.5597 26.4928 16.1455 25.235 16.404 24.8731V21.5303C15.8181 20.686 15.3701 19.6865 15.3701 18.8078C15.3701 17.8687 16.0507 16.8606 16.3781 16.5419C16.6366 16.2489 16.7055 16.5763 16.9985 16.6711L17.4206 16.8003C19.6865 16.5074 23.1586 15.4994 25.1402 15.4391L26.4411 14.3018C26.6048 14.1381 26.7944 14.207 27.251 14.3018C30.6541 15.0514 33.0579 17.2225 33.0579 19.1955C33.0579 19.9709 32.7649 20.7204 32.1791 21.177V24.0633C32.5065 24.7094 32.7305 25.3642 32.7994 25.9415C32.9631 27.4664 31.8948 28.7329 31.1797 28.8277L28.2332 29.0861C26.4842 29.2498 23.374 29.6375 21.2287 29.896C20.5481 30.0942 19.7985 30.2492 19.2816 30.2492L19.2557 30.2578ZM41.3374 36.3835C41.2082 37.1934 41.01 38.2014 40.7171 38.9768C41.5959 39.8556 42.0181 40.7947 42.0181 41.639C42.0181 42.6729 40.6913 44.172 39.6229 44.5597C39.3989 44.6286 37.8051 44.4305 36.4783 44.0772C33.2991 43.8188 27.3027 43.8791 23.5721 44.2065C22.6934 44.3357 21.7887 44.5597 21.0478 44.5597C19.2299 44.5597 17.188 42.3196 17.188 40.9584C17.188 40.6655 17.6705 39.5024 18.0323 39.1147L17.9634 34.6432L17.5068 33.0838C16.5332 32.4634 18.3511 31.0763 19.8071 31.0419C20.7118 31.0074 21.5906 31.0763 22.3401 31.24C25.4848 30.8523 30.9298 30.1028 34.0142 30.008L35.2462 29.1637C35.4099 29.0689 35.5047 29.0344 35.7976 29.0689C34.5311 28.4227 33.6265 27.3802 33.6868 26.1482L34.2037 24.9162V16.8434L33.3594 15.4821C32.2911 14.8015 34.0056 13.5006 35.5995 13.3455C39.0715 13.3455 42.6384 15.5166 42.6384 17.7911C42.6384 18.6958 42.1559 19.2472 41.8285 19.5745V27.4836C41.8285 28.9741 40.5017 29.784 38.7183 29.784C38.5201 29.784 38.3651 29.784 38.1669 29.7495C40.8291 30.8868 42.4488 32.8942 42.4488 34.4192C42.4488 35.1687 42.0611 35.8752 41.3461 36.4007L41.3374 36.3835ZM25.838 21.2115C24.8989 21.3407 23.8909 21.5389 23.0207 21.7284C23.15 22.0214 23.2189 22.2798 23.2189 22.5728V24.1925C24.1235 24.0633 25.0712 23.8996 25.8466 23.8048V21.2115H25.838ZM25.2866 37.9429C26.8116 37.7792 30.9298 37.426 34.0745 37.2968L34.1434 35.3841C31.5502 35.453 27.3027 35.8666 25.2953 36.1595V37.9429H25.2866Z" fill="black"/>
</g>
<defs>
<linearGradient id="paint0_linear_55_1085" x1="0.664202" y1="22.8761" x2="57.3799" y2="34.9728" gradientUnits="userSpaceOnUse">
<stop stop-color="#3F1C00"/>
<stop offset="0.16" stop-color="#9B8900"/>
<stop offset="0.32" stop-color="#FFFF00"/>
<stop offset="0.48" stop-color="#FDFD00"/>
<stop offset="0.54" stop-color="#F7F600"/>
<stop offset="0.58" stop-color="#EDEA00"/>
<stop offset="0.61" stop-color="#DFD900"/>
<stop offset="0.64" stop-color="#CDC300"/>
<stop offset="0.67" stop-color="#B6A900"/>
<stop offset="0.69" stop-color="#A5960D"/>
<stop offset="0.71" stop-color="#B7AE32"/>
<stop offset="0.73" stop-color="#C6C452"/>
<stop offset="0.75" stop-color="#D4D66D"/>
<stop offset="0.77" stop-color="#DEE583"/>
<stop offset="0.8" stop-color="#E7F194"/>
<stop offset="0.83" stop-color="#ECF9A0"/>
<stop offset="0.87" stop-color="#F0FDA7"/>
<stop offset="1" stop-color="#F1FFA9"/>
</linearGradient>
<clipPath id="clip0_55_1085">
<rect width="58" height="57.9052" fill="white"/>
</clipPath>
</defs>
</svg>
