<svg width="390" height="48" viewBox="0 0 390 48" fill="none" xmlns="http://www.w3.org/2000/svg">
<g filter="url(#filter0_i_39_2077)">
<path d="M386 0H4C1.79086 0 0 1.79086 0 4V44C0 46.2091 1.79086 48 4 48H386C388.209 48 390 46.2091 390 44V4C390 1.79086 388.209 0 386 0Z" fill="#1B191A"/>
<path d="M378.299 0.0765381H5.5C3.29086 0.0765381 1.5 1.8674 1.5 4.07654V43.5309C1.5 45.74 3.29085 47.5309 5.49999 47.5309H378.299C380.509 47.5309 382.299 45.74 382.299 43.5309V4.07654C382.299 1.8674 380.509 0.0765381 378.299 0.0765381Z" fill="#1B191A"/>
</g>
<path d="M152.691 25.42C151.271 25.54 141.931 25.64 140.631 25.62C139.891 25.6 138.851 25.52 138.071 25.4L137.891 25.74C137.851 25.84 137.871 25.94 137.951 26.02C138.511 26.54 139.371 27.14 140.171 27.44C140.731 27.28 141.931 27.06 142.451 27.02C143.651 26.96 151.911 26.86 153.291 26.86C153.951 26.86 155.331 26.9 155.831 26.96C156.111 26.84 156.431 26.38 156.431 25.88C156.431 25.66 156.311 25.5 156.111 25.44C155.591 25.24 154.391 25.08 153.571 25.04L152.691 25.42ZM147.591 35.04C147.991 33.92 148.351 31.48 148.351 30.26V26.42H146.051V30.94C146.051 31.86 146.171 34.22 146.291 35.04H147.591ZM150.751 17.96C149.491 18.02 144.051 18.08 142.911 18.08C142.251 18.08 141.311 18 140.611 17.86L140.431 18.18C140.391 18.28 140.411 18.36 140.491 18.46C141.011 18.96 141.791 19.5 142.531 19.84C143.051 19.66 144.011 19.5 144.591 19.48C145.551 19.4 149.211 19.36 150.751 19.38V17.96ZM153.051 19.38L153.431 18.5C153.491 18.36 153.491 18.26 153.371 18.18C153.131 18.02 152.471 17.7 152.091 17.54C151.971 17.5 151.791 17.5 151.671 17.54L150.691 17.96L150.471 19.36L153.051 19.38ZM150.951 26.02C151.111 26.04 151.251 25.96 151.331 25.84C152.211 24.1 152.911 21.34 153.051 19.38L151.831 18.92L150.471 19.36C150.471 21.14 150.231 23.96 149.851 25.58C149.811 25.82 149.871 25.92 150.031 25.94L150.951 26.02ZM171.847 35.2C172.307 33.9 172.587 31.52 172.587 30.22V18.12L172.667 17C172.687 16.74 172.587 16.58 172.387 16.48C171.747 16.18 170.307 15.9 169.447 15.86C169.247 15.86 169.167 15.9 169.127 16L168.887 16.68C169.507 16.94 170.107 17.36 170.347 17.76V30.9C170.347 31.84 170.467 34.48 170.607 35.2H171.847ZM168.007 33.96C168.427 32.76 168.707 30.54 168.707 29.34V19.34L168.767 18.32C168.767 18.08 168.707 17.92 168.507 17.82C167.907 17.54 166.587 17.26 165.787 17.22C165.587 17.22 165.507 17.28 165.467 17.36L165.227 18.04C165.807 18.28 166.347 18.64 166.587 19.02V29.98C166.587 30.84 166.687 33.18 166.827 33.96H168.007ZM171.367 25.1V23.68L167.927 23.76V25.18L171.367 25.1ZM159.467 21.4V20C158.687 19.88 157.347 19.78 156.567 19.78C156.427 19.78 156.347 19.82 156.327 19.9L156.187 20.5C156.607 20.66 156.987 20.94 157.187 21.2L159.467 21.4ZM159.067 29.32C159.407 28.86 159.567 28.38 159.547 27.62L159.467 21.02L157.187 21.18L157.587 27.9C157.607 28.38 157.707 28.94 157.867 29.32H159.067ZM162.827 19.94C162.007 20 160.227 20.02 159.407 20L159.447 21.4C160.467 21.38 161.727 21.36 162.747 21.36L162.827 19.94ZM164.867 21.36L165.127 20.44C165.187 20.3 165.167 20.22 165.067 20.14C164.867 19.98 164.327 19.64 164.027 19.5C163.927 19.44 163.747 19.44 163.627 19.5L162.707 19.96L162.607 21.34L164.867 21.36ZM164.407 26.9C164.627 25.2 164.807 23.06 164.867 21.32L162.607 21.34L162.587 26.9H164.407ZM164.667 28.4C164.847 28.22 164.987 27.84 164.987 27.38C164.987 27.24 164.907 27.12 164.787 27.06L164.267 26.78C163.907 26.52 163.467 26.54 162.787 26.8L162.207 26.98C161.507 27 160.227 27.02 159.427 27L159.367 28.46L164.667 28.4ZM183.804 18.92L183.764 17.5C182.944 17.38 181.504 17.26 180.704 17.26C180.564 17.26 180.484 17.3 180.464 17.38L180.284 18.02C180.744 18.18 181.184 18.48 181.404 18.74L183.804 18.92ZM183.344 24.38C183.744 24.02 183.864 23.66 183.824 22.88L183.804 18.58L181.404 18.74L181.764 23.18C181.824 23.58 181.924 24.06 182.084 24.38H183.344ZM191.664 23.68C191.844 23.52 192.024 23.12 192.024 22.7C192.024 22.56 191.944 22.46 191.844 22.4L191.204 22.1C190.804 21.9 190.464 21.92 189.804 22.08L189.064 22.28C187.764 22.32 185.284 22.36 183.764 22.34L183.684 23.76L191.664 23.68ZM189.644 17.42C188.324 17.48 185.084 17.5 183.744 17.5L183.784 18.92C185.524 18.88 187.804 18.86 189.604 18.86L189.644 17.42ZM191.964 18.78L192.264 17.88C192.324 17.74 192.304 17.64 192.224 17.58C191.964 17.42 191.304 17.12 190.944 16.98C190.804 16.94 190.644 16.94 190.524 16.98L189.584 17.42L189.544 18.86L191.964 18.78ZM191.404 22.26C191.664 21.18 191.864 19.88 191.964 18.76L189.544 18.86L189.484 22.22L191.404 22.26ZM192.124 25.52C190.704 25.64 181.364 25.74 180.064 25.72C179.324 25.72 178.284 25.64 177.504 25.5L177.324 25.84C177.284 25.94 177.304 26.04 177.384 26.12C177.944 26.66 178.804 27.24 179.604 27.54C180.164 27.38 181.364 27.18 181.884 27.14C183.084 27.06 191.344 26.96 192.724 26.98C193.384 26.98 194.764 27.02 195.264 27.08C195.544 26.94 195.864 26.48 195.864 26C195.864 25.76 195.744 25.6 195.544 25.54C195.024 25.36 193.824 25.18 193.004 25.14L192.124 25.52ZM187.344 31.58C187.704 30.7 188.004 28.9 188.004 27.86V26.52H185.704V28.46C185.704 29.22 185.784 30.9 185.884 31.58H187.344ZM192.284 34.56C192.424 34.56 192.584 34.52 192.664 34.44C192.804 34.3 193.004 33.9 193.004 33.34C193.004 33.12 192.844 32.98 192.624 32.92C192.164 32.84 191.184 32.74 190.504 32.76L189.704 33.2C188.464 33.24 185.524 33.28 184.264 33.26L183.484 34.64L192.284 34.56ZM184.284 33.26C183.944 33.26 183.804 33.1 183.804 32.74V31.22H181.484V32.82C181.484 34.02 182.044 34.62 183.484 34.64L184.284 33.26ZM183.804 32.08V31.02L183.844 29.96C183.844 29.7 183.704 29.54 183.484 29.46C182.844 29.34 181.364 29.24 180.524 29.24C180.344 29.24 180.264 29.32 180.244 29.4L180.084 30C180.624 30.16 181.164 30.46 181.484 30.72V32.08H183.804ZM210.58 35.2C211.06 33.86 211.34 31.4 211.34 30.08V18.24L211.42 17.02C211.44 16.76 211.34 16.58 211.12 16.5C210.42 16.2 208.88 15.9 207.92 15.86C207.72 15.86 207.68 15.9 207.64 16L207.4 16.68C208.1 16.96 208.74 17.4 209.02 17.86V30.8C209.02 31.72 209.14 34.48 209.28 35.2H210.58ZM198.28 28.86C197.48 28.88 196.48 28.84 195.7 28.7L195.54 29.06C195.48 29.16 195.5 29.22 195.6 29.3C196.2 29.88 197.1 30.5 197.88 30.88C198.32 30.7 199.22 30.5 199.68 30.48L198.28 28.86ZM209.4 28C209.38 27.88 209.26 27.82 209.12 27.84C206.7 28.36 201.24 28.8 198.28 28.86L199.68 30.48C202.26 30.34 206.98 29.66 209.32 29.08C209.46 29.04 209.56 28.98 209.52 28.8L209.4 28ZM206.52 22.5C206.52 20.24 204.56 18.58 201.9 18.58C199.24 18.58 197.32 20.24 197.32 22.5C197.32 24.8 199.24 26.46 201.9 26.46C204.56 26.46 206.52 24.8 206.52 22.5ZM204.18 22.5C204.18 23.86 203.22 24.74 201.9 24.74C200.58 24.74 199.62 23.86 199.62 22.5C199.62 21.14 200.58 20.28 201.9 20.28C203.22 20.28 204.18 21.14 204.18 22.5ZM232.816 35.2C233.296 33.9 233.576 31.52 233.576 30.22V18.12L233.636 17C233.656 16.74 233.576 16.58 233.356 16.48C232.716 16.18 231.276 15.9 230.416 15.86C230.216 15.86 230.156 15.9 230.096 16L229.856 16.68C230.496 16.94 231.076 17.36 231.336 17.76V30.9C231.336 31.84 231.436 34.48 231.576 35.2H232.816ZM228.956 34C229.396 32.8 229.656 30.58 229.656 29.38V19.38L229.736 18.38C229.736 18.14 229.656 17.98 229.476 17.88C228.876 17.6 227.556 17.3 226.736 17.28C226.536 17.28 226.456 17.32 226.416 17.42L226.176 18.08C226.756 18.32 227.296 18.7 227.536 19.08V30.02C227.536 30.9 227.636 33.22 227.796 34H228.956ZM232.316 25.36V23.94L228.876 24.02V25.44L232.316 25.36ZM223.716 21.46C222.916 21.52 220.256 21.54 219.596 21.54C219.116 21.54 218.436 21.52 217.916 21.46L217.756 21.72C217.696 21.8 217.716 21.88 217.816 22C218.196 22.38 218.796 22.84 219.336 23.14C219.716 23 220.396 22.88 220.796 22.86C221.216 22.8 223.056 22.78 223.716 22.78V21.46ZM225.656 22.72L226.056 21.98C226.096 21.88 226.096 21.74 225.996 21.66C225.796 21.52 225.236 21.24 224.936 21.1C224.816 21.06 224.636 21.06 224.516 21.1L223.676 21.46L223.036 22.78L225.656 22.72ZM217.676 30.86C217.756 30.9 217.856 30.88 217.976 30.8C221.416 28.9 224.336 25.7 225.656 22.72L224.356 22.3L223.036 22.78C221.956 25.26 219.896 28.18 217.256 30.24C217.196 30.36 217.216 30.44 217.296 30.52L217.676 30.86ZM225.196 29.58C225.356 29.76 225.536 29.94 225.696 30.02C226.016 30.14 226.476 29.98 226.636 29.72C226.716 29.58 226.716 29.38 226.616 29.06C226.496 28.68 226.196 28 225.936 27.54L225.136 27.2L222.436 26.26L225.196 29.58ZM225.136 27.2L223.396 25.34L222.436 26.26L224.956 27.36L225.136 27.2ZM219.576 18.4C219.516 18.5 219.536 18.6 219.616 18.72C219.876 19.2 220.336 19.74 220.676 20C220.816 20.1 220.896 20.1 221.116 20.1C221.956 20.04 223.256 20.04 224.056 20.06C224.216 20.06 224.336 20.04 224.416 19.94C224.636 19.74 224.696 19.08 224.516 18.78C224.436 18.6 224.316 18.56 224.096 18.56C222.956 18.56 221.396 18.46 219.756 18.18L219.576 18.4ZM248.673 24.32C245.993 25.02 242.093 25.42 239.613 25.42C239.313 25.42 239.213 25.3 239.213 25.02V21.72H236.893V24.84C236.893 25.28 236.933 25.68 237.013 25.92C237.273 26.72 237.913 27.22 238.813 27.22C239.033 27.22 239.313 27.22 239.593 27.2C242.113 27.04 245.813 26.42 248.673 25.54V24.32ZM239.213 23.12V20.02L239.253 18.68C238.573 18.54 236.773 18.44 236.013 18.44C235.873 18.44 235.813 18.5 235.773 18.56L235.633 19.2C236.153 19.36 236.613 19.66 236.893 19.98V23.12H239.213ZM244.893 19.82C245.053 19.82 245.173 19.78 245.253 19.7C245.413 19.54 245.533 19.16 245.533 18.66C245.533 18.44 245.433 18.3 245.213 18.26C244.753 18.16 243.873 18.12 243.313 18.12L242.713 18.52C242.093 18.58 239.893 18.66 239.153 18.68V20.02L244.893 19.82ZM244.673 23.02C244.833 23 245.013 22.96 245.093 22.88C245.213 22.76 245.313 22.4 245.313 21.96C245.313 21.78 245.193 21.62 244.953 21.56C244.573 21.5 243.733 21.46 243.173 21.46L242.573 21.8C241.893 21.88 239.733 21.96 238.913 21.98V23.32L244.673 23.02ZM250.053 28.06C250.453 27.08 250.773 25.16 250.773 23.96V18.22L250.833 17.02C250.853 16.76 250.773 16.58 250.573 16.5C249.873 16.2 248.373 15.9 247.433 15.86C247.233 15.86 247.173 15.9 247.133 16L246.893 16.7C247.573 16.96 248.173 17.4 248.453 17.86V24.56C248.453 25.38 248.553 27.38 248.713 28.06H250.053ZM250.413 31.48C250.413 29.32 248.413 27.94 245.913 27.94C243.433 27.94 241.433 29.32 241.433 31.48C241.433 33.78 243.433 35.28 245.913 35.28C248.413 35.28 250.413 33.78 250.413 31.48ZM248.073 31.48C248.073 32.74 247.153 33.46 245.913 33.46C244.673 33.46 243.753 32.74 243.753 31.48C243.753 30.22 244.673 29.48 245.913 29.48C247.153 29.48 248.073 30.22 248.073 31.48Z" fill="#FAFF00"/>
<path d="M109.58 13.8611C109.746 13.8124 109.926 13.7857 110.119 13.7857C111.267 13.7857 111.948 14.7291 111.948 15.619V19.4669C112.254 19.3607 112.609 19.2863 113.004 19.2863C114.468 19.2863 115.619 20.3664 115.619 21.9048C115.619 22.1582 115.497 22.3962 115.291 22.5437L113.492 23.8312L112.491 24.7033C111.822 25.2868 111.221 25.944 110.7 26.6624L110.073 27.5259C109.531 28.2724 108.664 28.7143 107.741 28.7143H106.025C105.049 28.7143 104.114 28.2188 103.61 27.3405C103.294 26.7892 102.902 26.0649 102.587 25.3479C102.287 24.6659 102 23.8679 102 23.2143V16.9286C102 16.0338 102.689 15.0952 103.833 15.0952C103.949 15.0952 104.059 15.1048 104.165 15.1228C104.366 14.4086 104.995 13.7857 105.929 13.7857C106.12 13.7857 106.3 13.8126 106.468 13.8619C106.77 13.3676 107.308 13 108.024 13C108.739 13 109.277 13.3672 109.58 13.8611ZM107.834 14.6452C107.789 14.6942 107.762 14.7649 107.762 14.8316V15.5286C107.763 15.5633 107.763 15.5981 107.762 15.633V19.5476C107.762 19.9816 107.41 20.3334 106.976 20.3334C106.542 20.3334 106.19 19.9816 106.19 19.5476V15.565C106.187 15.5264 106.168 15.4778 106.129 15.4359C106.09 15.3937 106.029 15.3571 105.929 15.3571C105.829 15.3571 105.775 15.3917 105.739 15.4305C105.695 15.4791 105.667 15.5502 105.667 15.6193V20.072C105.667 20.506 105.315 20.8577 104.881 20.8577C104.447 20.8577 104.095 20.506 104.095 20.072V16.9286C104.095 16.8604 104.068 16.7893 104.022 16.7403C103.986 16.701 103.932 16.6667 103.833 16.6667C103.734 16.6667 103.68 16.701 103.644 16.7403C103.599 16.7893 103.571 16.8604 103.571 16.9286V23.2143C103.571 23.5072 103.727 24.0369 104.026 24.7158C104.308 25.36 104.67 26.0299 104.973 26.5582C105.178 26.9165 105.574 27.1429 106.025 27.1429H107.741C108.161 27.1429 108.555 26.942 108.801 26.6027L109.428 25.7392C110.019 24.9249 110.7 24.1802 111.459 23.5189L112.487 22.6221C112.506 22.6056 112.526 22.59 112.546 22.5753L113.996 21.538C113.865 21.1105 113.497 20.8577 113.004 20.8577C112.336 20.8577 111.862 21.2767 111.703 21.4176C111.69 21.4286 111.68 21.438 111.671 21.4453C111.438 21.6437 111.11 21.6884 110.832 21.5598C110.554 21.4313 110.376 21.1529 110.376 20.8467V15.619C110.376 15.5484 110.348 15.4769 110.304 15.429C110.27 15.391 110.217 15.3571 110.119 15.3571C110.019 15.3571 109.965 15.3917 109.93 15.4304C109.885 15.4786 109.857 15.5494 109.857 15.619V19.5476C109.857 19.9816 109.505 20.3334 109.071 20.3334C108.637 20.3334 108.286 19.9816 108.286 19.5476V14.8316C108.286 14.7649 108.258 14.6942 108.213 14.6452C108.177 14.6058 108.123 14.5714 108.024 14.5714C107.925 14.5714 107.871 14.6058 107.834 14.6452ZM113.524 27.6667C114.102 27.6667 114.571 27.1976 114.571 26.619C114.571 26.0404 114.102 25.5714 113.524 25.5714C112.945 25.5714 112.476 26.0404 112.476 26.619C112.476 27.1976 112.945 27.6667 113.524 27.6667ZM117.714 27.6667C118.293 27.6667 118.762 27.1976 118.762 26.619C118.762 26.0404 118.293 25.5714 117.714 25.5714C117.136 25.5714 116.667 26.0404 116.667 26.619C116.667 27.1976 117.136 27.6667 117.714 27.6667ZM115.619 35C112.265 35 109.437 32.7487 108.564 29.6748C109.089 29.5623 109.585 29.3434 110.02 29.0335C110.634 31.5558 112.908 33.4286 115.619 33.4286C118.801 33.4286 121.381 30.8488 121.381 27.6667C121.381 24.8413 119.347 22.4909 116.664 21.9993C116.666 21.9679 116.667 21.9363 116.667 21.9047C116.667 21.3461 116.554 20.8289 116.353 20.3695C120.058 20.7376 122.952 23.8641 122.952 27.6667C122.952 31.7167 119.669 35 115.619 35ZM113.731 29.4819C113.43 29.1692 112.933 29.1595 112.62 29.4603C112.307 29.7612 112.298 30.2585 112.598 30.5713C113.36 31.3629 114.432 31.857 115.619 31.857C116.805 31.857 117.878 31.3629 118.639 30.5713C118.94 30.2585 118.93 29.7612 118.618 29.4603C118.305 29.1595 117.807 29.1692 117.507 29.4819C117.029 29.9782 116.361 30.2856 115.619 30.2856C114.877 30.2856 114.208 29.9782 113.731 29.4819Z" fill="#FAFF00"/>
<defs>
<filter id="filter0_i_39_2077" x="0" y="0" width="393" height="51" filterUnits="userSpaceOnUse" color-interpolation-filters="sRGB">
<feFlood flood-opacity="0" result="BackgroundImageFix"/>
<feBlend mode="normal" in="SourceGraphic" in2="BackgroundImageFix" result="shape"/>
<feColorMatrix in="SourceAlpha" type="matrix" values="0 0 0 0 0 0 0 0 0 0 0 0 0 0 0 0 0 0 127 0" result="hardAlpha"/>
<feOffset dx="3" dy="3"/>
<feGaussianBlur stdDeviation="2"/>
<feComposite in2="hardAlpha" operator="arithmetic" k2="-1" k3="1"/>
<feColorMatrix type="matrix" values="0 0 0 0 1 0 0 0 0 1 0 0 0 0 1 0 0 0 0.5 0"/>
<feBlend mode="normal" in2="shape" result="effect1_innerShadow_39_2077"/>
</filter>
</defs>
</svg>
