<svg width="15" height="14" viewBox="0 0 15 14" fill="none" xmlns="http://www.w3.org/2000/svg">
<path d="M8.94352 0C9.54187 0 10.0955 0.316852 10.3985 0.832777L11.0095 1.87271H12.5625C13.9087 1.87271 15 2.96402 15 4.31021V11.4352C15 12.7814 13.9087 13.8727 12.5625 13.8727H2.4375C1.0913 13.8727 0 12.7814 0 11.4352V4.31021C0 2.96402 1.0913 1.87271 2.4375 1.87271H3.99782L4.65375 0.804487C4.96069 0.304612 5.5052 0 6.0918 0H8.94352ZM8.94352 1.125H6.0918C5.92419 1.125 5.7669 1.19959 5.66095 1.32584L5.61244 1.39316L4.79185 2.72955C4.68953 2.89617 4.50803 2.99771 4.3125 2.99771H2.4375C1.71263 2.99771 1.125 3.58534 1.125 4.31021V11.4352C1.125 12.1601 1.71263 12.7477 2.4375 12.7477H12.5625C13.2874 12.7477 13.875 12.1601 13.875 11.4352V4.31021C13.875 3.58534 13.2874 2.99771 12.5625 2.99771H10.6875C10.4881 2.99771 10.3035 2.89209 10.2025 2.72012L9.42855 1.40259C9.32752 1.23062 9.14295 1.125 8.94352 1.125ZM7.5 4.12271C9.36398 4.12271 10.875 5.63377 10.875 7.49774C10.875 9.36164 9.36398 10.8727 7.5 10.8727C5.63604 10.8727 4.125 9.36164 4.125 7.49774C4.125 5.63377 5.63604 4.12271 7.5 4.12271ZM7.5 5.24771C6.25732 5.24771 5.25 6.25507 5.25 7.49774C5.25 8.74034 6.25732 9.74774 7.5 9.74774C8.74268 9.74774 9.75 8.74034 9.75 7.49774C9.75 6.25507 8.74268 5.24771 7.5 5.24771Z" fill="#212121"/>
</svg>
