<svg width="13" height="14" viewBox="0 0 13 14" fill="none" xmlns="http://www.w3.org/2000/svg">
<path d="M3.25 5.0448C4.44661 5.0448 5.41667 4.07711 5.41667 2.88341C5.41667 1.68971 4.44661 0.722015 3.25 0.722015C2.05339 0.722015 1.08333 1.68971 1.08333 2.88341C1.08333 4.07711 2.05339 5.0448 3.25 5.0448ZM3.25 3.9641C2.65169 3.9641 2.16667 3.48026 2.16667 2.88341C2.16667 2.28655 2.65169 1.80271 3.25 1.80271C3.84831 1.80271 4.33333 2.28655 4.33333 2.88341C4.33333 3.48026 3.84831 3.9641 3.25 3.9641ZM0 7.02608C0 6.32975 0.565861 5.76526 1.26389 5.76526H5.23611C5.93414 5.76526 6.5 6.32975 6.5 7.02608V10.4483C6.5 12.2389 5.04492 13.6904 3.25 13.6904C1.45508 13.6904 0 12.2389 0 10.4483V7.02608ZM1.26389 6.84596C1.16417 6.84596 1.08333 6.92658 1.08333 7.02608V10.4483C1.08333 11.642 2.05339 12.6097 3.25 12.6097C4.44661 12.6097 5.41667 11.642 5.41667 10.4483V7.02608C5.41667 6.92658 5.33585 6.84596 5.23611 6.84596H1.26389ZM5.43638 4.76696C5.75055 4.94386 6.11339 5.0448 6.49993 5.0448C7.69651 5.0448 8.66659 4.07711 8.66659 2.88341C8.66659 1.68971 7.69651 0.722015 6.49993 0.722015C6.11339 0.722015 5.75055 0.82296 5.43638 0.999855C5.67226 1.27206 5.85787 1.58877 5.97892 1.93565C6.13347 1.85091 6.31107 1.80271 6.49993 1.80271C7.09822 1.80271 7.58326 2.28655 7.58326 2.88341C7.58326 3.48026 7.09822 3.9641 6.49993 3.9641C6.31107 3.9641 6.13347 3.9159 5.97892 3.83116C5.85787 4.17805 5.67226 4.49475 5.43638 4.76696ZM5.67681 13.5855C5.9397 13.6539 6.21552 13.6904 6.49993 13.6904C8.29479 13.6904 9.74993 12.2389 9.74993 10.4483V7.02608C9.74993 6.32975 9.18407 5.76526 8.48604 5.76526H6.76816C7.01581 6.0644 7.17708 6.43731 7.21406 6.84596H8.48604C8.58571 6.84596 8.66659 6.92658 8.66659 7.02608V10.4483C8.66659 11.615 7.73991 12.5658 6.58067 12.6082C6.33627 12.9825 6.03019 13.3131 5.67681 13.5855ZM8.68638 4.76696C9.00055 4.94386 9.36339 5.0448 9.74993 5.0448C10.9465 5.0448 11.9166 4.07711 11.9166 2.88341C11.9166 1.68971 10.9465 0.722015 9.74993 0.722015C9.36339 0.722015 9.00055 0.82296 8.68638 0.999855C8.92226 1.27206 9.10787 1.58877 9.22892 1.93565C9.38347 1.85091 9.56107 1.80271 9.74993 1.80271C10.3482 1.80271 10.8333 2.28655 10.8333 2.88341C10.8333 3.48026 10.3482 3.9641 9.74993 3.9641C9.56107 3.9641 9.38347 3.9159 9.22892 3.83116C9.10787 4.17805 8.92226 4.49475 8.68638 4.76696ZM8.92681 13.5855C9.1897 13.6539 9.46552 13.6904 9.74993 13.6904C11.5448 13.6904 12.9999 12.2389 12.9999 10.4483V7.02608C12.9999 6.32975 12.4341 5.76526 11.736 5.76526H10.0182C10.2658 6.0644 10.4271 6.43731 10.4641 6.84596H11.736C11.8357 6.84596 11.9166 6.92658 11.9166 7.02608V10.4483C11.9166 11.615 10.9899 12.5658 9.83067 12.6082C9.58627 12.9825 9.28019 13.3131 8.92681 13.5855Z" fill="#999999"/>
</svg>
