<svg width="14" height="14" viewBox="0 0 14 14" fill="none" xmlns="http://www.w3.org/2000/svg">
<path d="M8.72642 5.34892C9.38771 5.34892 9.92379 5.88369 9.92379 6.54337V8.76165H9.92105V8.93228C9.92105 9.21499 9.69129 9.44419 9.40789 9.44419C9.12449 9.44419 8.89474 9.21499 8.89474 8.93228V7.39656H8.89747V6.54337C8.89747 6.44911 8.82091 6.37274 8.72642 6.37274H4.96185C4.86738 6.37274 4.79079 6.44911 4.79079 6.54337V8.76165H4.78947V8.93228C4.78947 9.21499 4.55972 9.44419 4.27632 9.44419C3.99291 9.44419 3.76316 9.21499 3.76316 8.93228V7.39656H3.76448V6.54337C3.76448 5.88369 4.30056 5.34892 4.96185 5.34892H8.72642ZM12.6579 6.54337V8.93228C12.6579 9.21499 12.8877 9.44419 13.1711 9.44419C13.4545 9.44419 13.6842 9.21499 13.6842 8.93228V6.54337C13.6842 5.88369 13.1481 5.34892 12.4868 5.34892L10.1774 5.34828C10.4123 5.63184 10.5654 5.98539 10.6003 6.37287L12.4868 6.37274C12.5813 6.37274 12.6579 6.44911 12.6579 6.54337ZM0 8.93228C0 9.21499 0.229751 9.44419 0.513158 9.44419C0.796565 9.44419 1.02632 9.21499 1.02632 8.93228V6.54337C1.02632 6.44911 1.1029 6.37274 1.19737 6.37274L3.08792 6.37287C3.1229 5.98539 3.27594 5.63184 3.51088 5.34828L1.19737 5.34892C0.536079 5.34892 0 5.88369 0 6.54337V8.93228ZM6.84211 0.571106C7.97577 0.571106 8.89474 1.48787 8.89474 2.61874C8.89474 3.74962 7.97577 4.66638 6.84211 4.66638C5.70844 4.66638 4.78947 3.74962 4.78947 2.61874C4.78947 1.48787 5.70844 0.571106 6.84211 0.571106ZM6.84211 1.59492C6.27531 1.59492 5.81579 2.0533 5.81579 2.61874C5.81579 3.18418 6.27531 3.64256 6.84211 3.64256C7.40891 3.64256 7.86842 3.18418 7.86842 2.61874C7.86842 2.0533 7.40891 1.59492 6.84211 1.59492ZM11.2895 1.25365C12.2342 1.25365 13 2.01762 13 2.96001C13 3.90241 12.2342 4.66638 11.2895 4.66638C10.3448 4.66638 9.57895 3.90241 9.57895 2.96001C9.57895 2.01762 10.3448 1.25365 11.2895 1.25365ZM11.2895 2.27747C10.9116 2.27747 10.6053 2.58306 10.6053 2.96001C10.6053 3.33697 10.9116 3.64256 11.2895 3.64256C11.6674 3.64256 11.9737 3.33697 11.9737 2.96001C11.9737 2.58306 11.6674 2.27747 11.2895 2.27747ZM2.39474 1.25365C3.33943 1.25365 4.10526 2.01762 4.10526 2.96001C4.10526 3.90241 3.33943 4.66638 2.39474 4.66638C1.45004 4.66638 0.684211 3.90241 0.684211 2.96001C0.684211 2.01762 1.45004 1.25365 2.39474 1.25365ZM2.39474 2.27747C2.01686 2.27747 1.71053 2.58306 1.71053 2.96001C1.71053 3.33697 2.01686 3.64256 2.39474 3.64256C2.77261 3.64256 3.07895 3.33697 3.07895 2.96001C3.07895 2.58306 2.77261 2.27747 2.39474 2.27747ZM0.513158 10.1267C0.229751 10.1267 0 10.3559 0 10.6386V10.9799C0 12.3935 1.14874 13.5395 2.56579 13.5395H11.1184C12.5355 13.5395 13.6842 12.3935 13.6842 10.9799V10.6386C13.6842 10.3559 13.4545 10.1267 13.1711 10.1267H0.513158ZM2.56579 12.5156C1.77338 12.5156 1.1208 11.9184 1.03571 11.1506H12.6485C12.5634 11.9184 11.9108 12.5156 11.1184 12.5156H2.56579Z" fill="#999999"/>
</svg>
