<svg width="15" height="17" viewBox="0 0 15 17" fill="none" xmlns="http://www.w3.org/2000/svg">
<path d="M7.49614 0C10.8785 0 13.6403 2.6682 13.7565 6.05429L13.76 6.26387V9.68562L14.9126 12.3215C14.9703 12.4533 15 12.5957 15 12.7397C15 13.3162 14.5326 13.7837 13.956 13.7837L10.0017 13.7849C10.0017 15.1687 8.87995 16.2905 7.49614 16.2905C6.16177 16.2905 5.07105 15.2473 4.99484 13.9321L4.99022 13.783L1.04424 13.7837C0.901148 13.7837 0.759577 13.7542 0.628319 13.6972C0.099482 13.4675 -0.143013 12.8526 0.0866954 12.3238L1.23227 9.68637V6.26378C1.23277 2.79378 4.03188 0 7.49614 0ZM8.7485 13.783L6.24337 13.7849C6.24337 14.4768 6.80427 15.0377 7.49614 15.0377C8.14733 15.0377 8.68243 14.5409 8.74315 13.9055L8.7485 13.783ZM7.49614 1.25277C4.7232 1.25277 2.48545 3.48627 2.48505 6.26387V9.94669L1.36258 12.5309H13.6368L12.5072 9.94753L12.5073 6.27461L12.5042 6.08652C12.4114 3.38598 10.2035 1.25277 7.49614 1.25277Z" fill="#999999"/>
</svg>
