<svg width="13" height="13" viewBox="0 0 13 13" fill="none" xmlns="http://www.w3.org/2000/svg">
<path d="M2.1125 9.75C0.945796 9.75 0 8.80419 0 7.6375V2.1125C0 0.945796 0.945796 0 2.1125 0H10.8875C12.0542 0 13 0.945796 13 2.1125V7.6375C13 8.80419 12.0542 9.75 10.8875 9.75H7.15813L3.89914 12.188C3.5398 12.4567 3.03063 12.3833 2.76186 12.024C2.65678 11.8834 2.6 11.7127 2.6 11.5374L2.59949 9.75H2.1125ZM6.83378 8.775H10.8875C11.5157 8.775 12.025 8.26573 12.025 7.6375V2.1125C12.025 1.48428 11.5157 0.975 10.8875 0.975H2.1125C1.48428 0.975 0.975 1.48428 0.975 2.1125V7.6375C0.975 8.26573 1.48428 8.775 2.1125 8.775H3.57421L3.57435 9.26237L3.57491 11.2129L6.83378 8.775Z" fill="black"/>
</svg>
