<svg width="21" height="19" viewBox="0 0 21 19" fill="none" xmlns="http://www.w3.org/2000/svg">
<path d="M16.0006 6.99579C18.2101 6.99579 20.0013 8.78699 20.0013 10.9964C20.0013 12.0115 19.6232 12.9383 19.0003 13.6436L19.0002 18.2445C19.0002 18.8153 18.3957 19.1639 17.9101 18.9134L17.8206 18.8593L16.0003 17.587L14.1806 18.8593C13.7127 19.1862 13.0807 18.8904 13.008 18.3488L13.0011 18.2445L13.0001 13.6426C12.3777 12.9374 12 12.011 12 10.9964C12 8.78699 13.7911 6.99579 16.0006 6.99579ZM17.4994 14.7069C17.0365 14.894 16.5306 14.9971 16.0006 14.9971C15.4699 14.9971 14.9633 14.8937 14.4999 14.7061L14.5003 16.805L15.5711 16.0579C15.7968 15.9002 16.0878 15.8805 16.3298 15.9988L16.4302 16.0579L17.4993 16.805L17.4994 14.7069ZM17.25 0C18.7125 0 19.9084 1.1417 19.995 2.58247L20 2.75L20.0014 7.99589C19.5971 7.45769 19.0867 7.00369 18.5013 6.66496L18.5 2.75C18.5 2.10279 18.0081 1.57046 17.3778 1.50645L17.25 1.5H2.75C2.10279 1.5 1.57047 1.99187 1.50645 2.62219L1.5 2.75V12.25C1.5 12.8972 1.99187 13.4295 2.62219 13.4936L2.75 13.5L11.6716 13.5012L11.7955 13.7037L11.9291 13.9004L12 13.9938L11.999 15H2.75C1.28747 15 0.0915999 13.8583 0.0050199 12.4175L0 12.25V2.75C0 1.28746 1.1417 0.0915899 2.58248 0.00500989L2.75 0H17.25ZM16.0006 8.49579C14.6196 8.49579 13.5 9.61539 13.5 10.9964C13.5 12.3775 14.6196 13.4971 16.0006 13.4971C17.3817 13.4971 18.5013 12.3775 18.5013 10.9964C18.5013 9.61539 17.3817 8.49579 16.0006 8.49579ZM9.25 9.49579C9.6642 9.49579 10 9.83159 10 10.2458C10 10.6255 9.7178 10.9393 9.3518 10.989L9.25 10.9958H4.75C4.33579 10.9958 4 10.66 4 10.2458C4 9.86609 4.28215 9.55229 4.64823 9.50259L4.75 9.49579H9.25ZM15.25 3.99579C15.6642 3.99579 16 4.33158 16 4.74579C16 5.12549 15.7178 5.43928 15.3518 5.48895L15.25 5.49579H4.75C4.33579 5.49579 4 5.16001 4 4.74579C4 4.3661 4.28215 4.0523 4.64823 4.00264L4.75 3.99579H15.25Z" fill="#212121"/>
</svg>
