<svg width="62" height="24" viewBox="0 0 62 24" fill="none" xmlns="http://www.w3.org/2000/svg">
<path d="M0.801758 0.499969H61.5002V23.5H0.801758V0.499969Z" fill="#FF50E2" stroke="black"/>
<path d="M22.2407 8.33997V9.00997H25.4207C25.2507 10.53 23.9207 11.7 21.7907 12.31L22.1307 12.95C24.7007 12.22 26.2907 10.61 26.2907 8.33997H22.2407ZM24.0907 13.92H28.2707V15.95H24.0907V13.92ZM23.2807 16.61H29.0807V13.27H23.2807V16.61ZM28.2507 7.76997V10.08H26.3007V10.75H28.2507V12.89H29.0807V7.76997H28.2507ZM35.3799 12.02C34.2199 11.56 33.5599 10.52 33.5599 9.50997V8.29997H32.7699V9.50997C32.7699 10.53 32.0699 11.71 30.8999 12.24L31.3399 12.87C32.2099 12.48 32.8499 11.72 33.1699 10.87C33.4899 11.64 34.1099 12.3 34.9399 12.64L35.3799 12.02ZM32.4299 14.35H37.6399V16.74H38.4599V13.69H32.4299V14.35ZM37.6699 7.77997V10.11H36.5299V7.92997H35.7499V13.14H36.5299V10.78H37.6699V13.2H38.4599V7.77997H37.6699Z" fill="white"/>
</svg>
