<svg width="52" height="24" viewBox="0 0 52 24" fill="none" xmlns="http://www.w3.org/2000/svg">
<path d="M3.17881 9.224H6.59881V7.964H1.59481V15.392H2.49481C4.51081 15.392 5.83081 15.344 7.31881 15.068L7.16281 13.784C5.90281 14 4.76281 14.084 3.17881 14.096V9.224ZM8.77081 6.98V10.796H6.07081V12.068H8.77081V18.068H10.3548V6.98H8.77081ZM13.9059 10.628H18.6339V12.176H13.9059V10.628ZM17.0619 15.464V13.436H20.1939V7.664H18.6339V9.38H13.9059V7.664H12.3339V13.436H15.4779V15.464H11.2779V16.748H21.2859V15.464H17.0619ZM22.0889 8.12V9.38H25.7729C25.5449 11.828 24.3209 13.556 21.5009 14.912L22.3289 16.16C26.2529 14.264 27.3929 11.504 27.3929 8.12H22.0889ZM29.0849 6.968V18.02H30.6809V6.968H29.0849Z" fill="#FF50E2"/>
<path d="M45.5 8.88889C45.7991 8.88889 46.0417 9.1314 46.0417 9.43056V11.9583H48.5694C48.8686 11.9583 49.1111 12.2009 49.1111 12.5C49.1111 12.7991 48.8686 13.0417 48.5694 13.0417H46.0417V15.5694C46.0417 15.8686 45.7991 16.1111 45.5 16.1111C45.2009 16.1111 44.9583 15.8686 44.9583 15.5694V13.0417H42.4306C42.1314 13.0417 41.8889 12.7991 41.8889 12.5C41.8889 12.2009 42.1314 11.9583 42.4306 11.9583H44.9583V9.43056C44.9583 9.1314 45.2009 8.88889 45.5 8.88889ZM39 8.34722C39 7.05088 40.0509 6 41.3472 6H49.6528C50.9491 6 52 7.05088 52 8.34722V16.6528C52 17.9491 50.9491 19 49.6528 19H41.3472C40.0509 19 39 17.9491 39 16.6528V8.34722ZM41.3472 7.08333C40.6492 7.08333 40.0833 7.64919 40.0833 8.34722V16.6528C40.0833 17.3508 40.6492 17.9167 41.3472 17.9167H49.6528C50.3508 17.9167 50.9167 17.3508 50.9167 16.6528V8.34722C50.9167 7.64919 50.3508 7.08333 49.6528 7.08333H41.3472Z" fill="#FF50E2"/>
</svg>
