<svg width="17" height="21" viewBox="0 0 17 21" fill="none" xmlns="http://www.w3.org/2000/svg">
<path d="M9.0019 2.3226V8.55926C9.0019 8.97235 8.6661 9.30723 8.2519 9.30723C7.8377 9.30723 7.5019 8.97235 7.5019 8.55926V3.54598C7.5019 3.30715 7.2977 3.07141 7.0041 3.0697C6.74165 3.06809 6.5 3.31362 6.5 3.57245V11.0526C6.5 11.3594 6.31208 11.6352 6.02598 11.7482C5.74066 11.8607 5.41543 11.7887 5.20483 11.5663L5.20406 11.5655L5.20145 11.5628C5.19741 11.5586 5.18995 11.5512 5.17923 11.5406C5.15775 11.5194 5.1234 11.4864 5.07738 11.445C4.98494 11.3617 4.84787 11.2466 4.67593 11.1252C4.32423 10.8768 3.86676 10.6309 3.37323 10.5447C2.83595 10.4507 2.32627 10.5081 1.98757 10.6826C1.77902 10.79 1.61572 10.9468 1.54231 11.2095L3.20069 12.4531C3.22872 12.474 3.25524 12.4969 3.28006 12.5217L5.4553 14.689C6.38986 15.6201 7.1674 16.6957 7.758 17.8742C8.0372 18.4315 8.6082 18.7834 9.2328 18.7834H11.9606C12.5324 18.7834 13.0294 18.5114 13.2864 18.0722C14.0222 16.8153 15 14.7931 15 13.0509V5.31783C15 5.05012 14.7849 4.81908 14.4988 4.81908C14.2099 4.81908 13.9959 5.04918 13.9959 5.31783V8.80855C13.9959 9.22164 13.6601 9.55662 13.2459 9.55662C12.8317 9.55662 12.4959 9.22164 12.4959 8.80855V3.57245C12.4959 3.29493 12.2815 3.06972 12 3.06972C11.7131 3.06972 11.5 3.2947 11.5 3.57246V8.55926C11.5 8.97235 11.1642 9.30723 10.75 9.30723C10.3358 9.30723 10 8.97235 10 8.55926V2.3226C10 2.05065 9.7879 1.82439 9.5014 1.82417C9.211 1.82394 9.0019 2.04658 9.0019 2.3226ZM7.0134 1.5737C7.2247 1.57495 7.4256 1.60761 7.6128 1.66649L7.0134 1.5737ZM7.6128 1.66649C7.8753 0.909951 8.5824 0.327433 9.5026 0.328141C10.4183 0.328849 11.1246 0.912555 11.388 1.66596C11.5781 1.60626 11.7831 1.57369 12 1.57369C13.1085 1.57369 13.8964 2.42707 13.9871 3.38702C14.1487 3.34541 14.3199 3.32305 14.4988 3.32305C15.6682 3.32305 16.5 4.27963 16.5 5.31783V13.0509C16.5 15.2258 15.3286 17.5507 14.5818 18.8265C14.0254 19.7771 13.0022 20.2795 11.9606 20.2795H9.2328C8.0399 20.2795 6.9495 19.6072 6.41624 18.543C5.89792 17.5086 5.21544 16.5646 4.39518 15.7473L2.25721 13.6172L0.29931 12.1492C0.11086 12.0078 0 11.7864 0 11.5513C0 10.4924 0.53131 9.74895 1.2992 9.35342C2.01488 8.98472 2.88154 8.93993 3.63215 9.07111C4.15095 9.16179 4.61507 9.35382 5 9.5647V3.57245C5 2.51489 5.8882 1.56696 7.0134 1.5737" fill="#212121"/>
</svg>
