<svg width="16" height="14" viewBox="0 0 16 14" fill="none" xmlns="http://www.w3.org/2000/svg">
<path d="M2.67647 3.84883C2.67647 2.79557 3.5324 1.94172 4.58824 1.94172C5.64407 1.94172 6.5 2.79557 6.5 3.84883C6.5 4.9021 5.64407 5.75594 4.58824 5.75594C3.5324 5.75594 2.67647 4.9021 2.67647 3.84883ZM4.58824 0.797455C2.89889 0.797455 1.52941 2.1636 1.52941 3.84883C1.52941 5.53403 2.89889 6.90021 4.58824 6.90021C6.27755 6.90021 7.64706 5.53403 7.64706 3.84883C7.64706 2.1636 6.27755 0.797455 4.58824 0.797455ZM10.3235 4.61168C10.3235 3.97971 10.8371 3.46741 11.4706 3.46741C12.1041 3.46741 12.6176 3.97971 12.6176 4.61168C12.6176 5.24364 12.1041 5.75594 11.4706 5.75594C10.8371 5.75594 10.3235 5.24364 10.3235 4.61168ZM11.4706 2.32314C10.2035 2.32314 9.17647 3.34776 9.17647 4.61168C9.17647 5.87563 10.2035 6.90021 11.4706 6.90021C12.7376 6.90021 13.7647 5.87563 13.7647 4.61168C13.7647 3.34776 12.7376 2.32314 11.4706 2.32314ZM9.36642 12.2689C9.90348 12.4867 10.5925 12.6215 11.4714 12.6215C13.2166 12.6215 14.2134 12.0896 14.7572 11.4331C15.0211 11.1145 15.1554 10.7928 15.2235 10.5462C15.2575 10.4231 15.2753 10.3178 15.2846 10.2392C15.2892 10.1998 15.2918 10.1668 15.2932 10.1413C15.2939 10.1286 15.2943 10.1177 15.2946 10.1087L15.2948 10.0968L15.2949 10.0919V10.0897V10.0878C15.2949 9.16998 14.549 8.4259 13.6289 8.4259H9.31381C9.29278 8.4259 9.27191 8.42628 9.25118 8.42704C9.5524 8.74065 9.77195 9.13306 9.87541 9.57017H13.6289C13.9131 9.57017 14.1438 9.79795 14.1477 10.0804C14.1475 10.0848 14.1468 10.0931 14.1455 10.105C14.142 10.1337 14.1344 10.1816 14.1176 10.2424C14.0841 10.3637 14.0153 10.5323 13.873 10.7041C13.6043 11.0284 12.9761 11.4773 11.4714 11.4773C10.7219 11.4773 10.1899 11.3659 9.81133 11.2141C9.72943 11.5193 9.59339 11.8875 9.36642 12.2689ZM1.72059 8.4259C0.770334 8.4259 0 9.19439 0 10.1423V10.3338V10.3347L7.65744e-06 10.3367L5.36021e-05 10.3415L0.000267646 10.3541C0.000489411 10.364 0.000894699 10.3766 0.00160588 10.3918C0.00302823 10.4222 0.00569699 10.4631 0.0106905 10.5129C0.0206546 10.6123 0.0400171 10.7488 0.0777324 10.91C0.152903 11.2313 0.303237 11.6607 0.605517 12.0914C1.23168 12.9838 2.42548 13.7658 4.58824 13.7658C6.75098 13.7658 7.94476 12.9838 8.57098 12.0914C8.87327 11.6607 9.02361 11.2313 9.0987 10.91C9.13648 10.7488 9.15582 10.6123 9.16576 10.5129C9.17081 10.4631 9.17341 10.4222 9.17486 10.3918C9.17555 10.3766 9.17601 10.364 9.17617 10.3541L9.17639 10.3415L9.17647 10.3367V10.3347V10.1423C9.17647 9.19439 8.40611 8.4259 7.45588 8.4259H1.72059ZM1.14742 10.3385L1.14706 10.329V10.1423C1.14706 9.82633 1.40384 9.57017 1.72059 9.57017H7.45588C7.77262 9.57017 8.02941 9.82633 8.02941 10.1423V10.3289L8.02903 10.3385C8.02849 10.3499 8.02727 10.3706 8.02444 10.399C8.01871 10.456 8.0067 10.543 7.98169 10.65C7.93138 10.865 7.83082 11.1509 7.63123 11.4352C7.25377 11.9732 6.4402 12.6215 4.58824 12.6215C2.73629 12.6215 1.92273 11.9732 1.54522 11.4352C1.34566 11.1509 1.24508 10.865 1.19478 10.65C1.16977 10.543 1.15776 10.456 1.15205 10.399C1.14921 10.3706 1.14795 10.3499 1.14742 10.3385Z" fill="#999999"/>
</svg>
