<svg width="12" height="12" viewBox="0 0 12 12" fill="none" xmlns="http://www.w3.org/2000/svg">
<path d="M8.85347 4.52023C9.04873 4.32497 9.04873 4.00839 8.85347 3.81312C8.6582 3.61785 8.34167 3.61785 8.1464 3.81311L5.1666 6.79273L4.18428 5.81047C3.98902 5.6152 3.67243 5.6152 3.47717 5.81047C3.28191 6.00567 3.28191 6.32227 3.47717 6.51753L4.81307 7.8534C5.00827 8.04867 5.32487 8.04867 5.52013 7.8534L8.85347 4.52023ZM2.16667 0C0.970047 0 0 0.970047 0 2.16667V9.83333C0 11.0299 0.970047 12 2.16667 12H9.83333C11.0299 12 12 11.0299 12 9.83333V2.16667C12 0.970047 11.0299 0 9.83333 0H2.16667ZM1 2.16667C1 1.52233 1.52233 1 2.16667 1H9.83333C10.4777 1 11 1.52233 11 2.16667V9.83333C11 10.4777 10.4777 11 9.83333 11H2.16667C1.52233 11 1 10.4777 1 9.83333V2.16667Z" fill="#FF50E2"/>
</svg>
